<?xml version="1.0" encoding="UTF-8" standalone="no"?>
<!DOCTYPE svg PUBLIC "-//W3C//DTD SVG 1.1//EN"
 "http://www.w3.org/Graphics/SVG/1.1/DTD/svg11.dtd">
<!-- Generated by graphviz version 2.40.1 (20161225.0304)
 -->
<!-- Title: dependencies Pages: 1 -->
<svg width="504pt" height="284pt"
 viewBox="0.00 0.00 504.00 284.00" xmlns="http://www.w3.org/2000/svg" xmlns:xlink="http://www.w3.org/1999/xlink">
<g id="graph0" class="graph" transform="scale(1 1) rotate(0) translate(4 280)">
<title>dependencies</title>
<polygon fill="#ffffff" stroke="transparent" points="-4,4 -4,-280 500,-280 500,4 -4,4"/>
<text text-anchor="start" x="227.0091" y="-42.4" font-family="sans-serif" font-weight="bold" font-size="14.00" fill="#000000">Legend</text>
<polygon fill="#ffffb3" stroke="transparent" points="14,-10 14,-30 34,-30 34,-10 14,-10"/>
<text text-anchor="start" x="37.629" y="-15.4" font-family="sans-serif" font-size="14.00" fill="#000000"> &#160;Declarations</text>
<polygon fill="#8dd3c7" stroke="transparent" points="127,-10 127,-30 147,-30 147,-10 127,-10"/>
<text text-anchor="start" x="150.7251" y="-15.4" font-family="sans-serif" font-size="14.00" fill="#000000"> &#160;Module</text>
<polygon fill="#80b1d3" stroke="transparent" points="213,-10 213,-30 233,-30 233,-10 213,-10"/>
<text text-anchor="start" x="236.7812" y="-15.4" font-family="sans-serif" font-size="14.00" fill="#000000"> &#160;Bootstrap</text>
<polygon fill="#fdb462" stroke="transparent" points="310,-10 310,-30 330,-30 330,-10 310,-10"/>
<text text-anchor="start" x="333.6732" y="-15.4" font-family="sans-serif" font-size="14.00" fill="#000000"> &#160;Providers</text>
<polygon fill="#fb8072" stroke="transparent" points="406,-10 406,-30 426,-30 426,-10 406,-10"/>
<text text-anchor="start" x="429.7258" y="-15.4" font-family="sans-serif" font-size="14.00" fill="#000000"> &#160;Exports</text>
<g id="clust1" class="cluster">
<title>cluster_LazyRenderModule</title>
<polygon fill="none" stroke="#000000" stroke-dasharray="1,5" points="80,-70 80,-268 416,-268 416,-70 80,-70"/>
</g>
<g id="clust2" class="cluster">
<title>cluster_LazyRenderModule_declarations</title>
<polygon fill="none" stroke="#000000" points="92,-78 92,-130 405,-130 405,-78 92,-78"/>
</g>
<g id="clust6" class="cluster">
<title>cluster_LazyRenderModule_exports</title>
<polygon fill="none" stroke="#000000" points="88,-208 88,-260 408,-260 408,-208 88,-208"/>
</g>
<!-- LazyPageComponent -->
<g id="node1" class="node">
<title>LazyPageComponent</title>
<polygon fill="#ffffb3" stroke="#000000" points="397.0268,-122 260.9732,-122 260.9732,-86 397.0268,-86 397.0268,-122"/>
<text text-anchor="middle" x="329" y="-99.8" font-family="Times,serif" font-size="14.00" fill="#000000">LazyPageComponent</text>
</g>
<!-- LazyRenderModule -->
<g id="node3" class="node">
<title>LazyRenderModule</title>
<polygon fill="#8dd3c7" stroke="#000000" points="235.958,-187 232.958,-191 211.958,-191 208.958,-187 108.042,-187 108.042,-151 235.958,-151 235.958,-187"/>
<text text-anchor="middle" x="172" y="-164.8" font-family="Times,serif" font-size="14.00" fill="#000000">LazyRenderModule</text>
</g>
<!-- LazyPageComponent&#45;&gt;LazyRenderModule -->
<g id="edge1" class="edge">
<title>LazyPageComponent&#45;&gt;LazyRenderModule</title>
<path fill="none" stroke="#000000" d="M351.7543,-122.0225C351.7543,-139.3734 351.7543,-163 351.7543,-163 351.7543,-163 246.1342,-163 246.1342,-163"/>
<polygon fill="#000000" stroke="#000000" points="246.1342,-159.5001 236.1342,-163 246.1341,-166.5001 246.1342,-159.5001"/>
</g>
<!-- LazyBlockComponent -->
<g id="node2" class="node">
<title>LazyBlockComponent</title>
<polygon fill="#ffffb3" stroke="#000000" points="242.2562,-122 99.7438,-122 99.7438,-86 242.2562,-86 242.2562,-122"/>
<text text-anchor="middle" x="171" y="-99.8" font-family="Times,serif" font-size="14.00" fill="#000000">LazyBlockComponent</text>
</g>
<!-- LazyBlockComponent&#45;&gt;LazyRenderModule -->
<g id="edge2" class="edge">
<title>LazyBlockComponent&#45;&gt;LazyRenderModule</title>
<path fill="none" stroke="#000000" d="M172,-122.1061C172,-122.1061 172,-140.991 172,-140.991"/>
<polygon fill="#000000" stroke="#000000" points="168.5001,-140.9909 172,-150.991 175.5001,-140.991 168.5001,-140.9909"/>
</g>
<!-- LazyPageComponent  -->
<g id="node4" class="node">
<title>LazyPageComponent </title>
<polygon fill="#fb8072" stroke="#000000" points="400.026,-252 259.974,-252 259.974,-216 400.026,-216 400.026,-252"/>
<text text-anchor="middle" x="330" y="-229.8" font-family="Times,serif" font-size="14.00" fill="#000000">LazyPageComponent </text>
</g>
<!-- LazyRenderModule&#45;&gt;LazyPageComponent  -->
<g id="edge3" class="edge">
<title>LazyRenderModule&#45;&gt;LazyPageComponent </title>
<path fill="none" stroke="#000000" stroke-dasharray="5,2" d="M235.9775,-175C270.5539,-175 306.2457,-175 306.2457,-175 306.2457,-175 306.2457,-205.9775 306.2457,-205.9775"/>
<polygon fill="#000000" stroke="#000000" points="302.7458,-205.9774 306.2457,-215.9775 309.7458,-205.9775 302.7458,-205.9774"/>
</g>
<!-- LazyBlockComponent  -->
<g id="node5" class="node">
<title>LazyBlockComponent </title>
<polygon fill="#fb8072" stroke="#000000" points="242.2562,-252 95.7438,-252 95.7438,-216 242.2562,-216 242.2562,-252"/>
<text text-anchor="middle" x="169" y="-229.8" font-family="Times,serif" font-size="14.00" fill="#000000">LazyBlockComponent </text>
</g>
<!-- LazyRenderModule&#45;&gt;LazyBlockComponent  -->
<g id="edge4" class="edge">
<title>LazyRenderModule&#45;&gt;LazyBlockComponent </title>
<path fill="none" stroke="#000000" stroke-dasharray="5,2" d="M172,-187.1061C172,-187.1061 172,-205.991 172,-205.991"/>
<polygon fill="#000000" stroke="#000000" points="168.5001,-205.9909 172,-215.991 175.5001,-205.991 168.5001,-205.9909"/>
</g>
</g>
</svg>
